<?xml version="1.0" encoding="UTF-8" standalone="no"?>
<!-- Created with Inkscape (http://www.inkscape.org/) -->

<svg
   width="147mm"
   height="163mm"
   viewBox="0 0 520.8654 577.55838"
   id="svg2"
   version="1.1"
   inkscape:version="1.1.2 (0a00cf5339, 2022-02-04)"
   sodipodi:docname="fiviconNN.svg"
   inkscape:export-filename="/home/nestor/Pictures/imagensSite/fivcon.png"
   inkscape:export-xdpi="204"
   inkscape:export-ydpi="204"
   xmlns:inkscape="http://www.inkscape.org/namespaces/inkscape"
   xmlns:sodipodi="http://sodipodi.sourceforge.net/DTD/sodipodi-0.dtd"
   xmlns:xlink="http://www.w3.org/1999/xlink"
   xmlns="http://www.w3.org/2000/svg"
   xmlns:svg="http://www.w3.org/2000/svg"
   xmlns:rdf="http://www.w3.org/1999/02/22-rdf-syntax-ns#"
   xmlns:cc="http://creativecommons.org/ns#"
   xmlns:dc="http://purl.org/dc/elements/1.1/">
  <defs
     id="defs4">
    <linearGradient
       id="linearGradient4309"
       inkscape:collect="always">
      <stop
         id="stop4311"
         offset="0"
         style="stop-color:#1e91bf;stop-opacity:0.89411765" />
      <stop
         id="stop4313"
         offset="1"
         style="stop-color:#00327d;stop-opacity:0.85882354" />
    </linearGradient>
    <linearGradient
       inkscape:collect="always"
       id="linearGradient4242">
      <stop
         style="stop-color:#38ad15;stop-opacity:1"
         offset="0"
         id="stop4244" />
      <stop
         style="stop-color:#137e32;stop-opacity:0.93333334"
         offset="1"
         id="stop4246" />
    </linearGradient>
    <clipPath
       clipPathUnits="userSpaceOnUse"
       id="clipPath3429">
      <rect
         style="fill:none;fill-rule:evenodd;stroke:#000000;stroke-width:1px;stroke-linecap:butt;stroke-linejoin:miter;stroke-opacity:1"
         id="rect3431"
         width="451.42856"
         height="468.57144"
         x="165.71428"
         y="146.64792" />
    </clipPath>
    <linearGradient
       inkscape:collect="always"
       xlink:href="#linearGradient4309"
       id="linearGradient4248-7"
       x1="-400.78345"
       y1="968.5025"
       x2="-101.31541"
       y2="758.43359"
       gradientUnits="userSpaceOnUse"
       gradientTransform="matrix(-0.99965396,0,0,-0.97298271,-1056.9909,1709.5648)" />
    <linearGradient
       inkscape:collect="always"
       xlink:href="#linearGradient4242"
       id="linearGradient15047"
       gradientUnits="userSpaceOnUse"
       gradientTransform="matrix(1.0331499,0,0,1.0331499,-714.83154,-140.63526)"
       x1="-119.64798"
       y1="773.70587"
       x2="-319.61014"
       y2="1075.7297" />
  </defs>
  <sodipodi:namedview
     id="base"
     pagecolor="#ffffff"
     bordercolor="#666666"
     borderopacity="0.63529412"
     inkscape:pageopacity="0.0"
     inkscape:pageshadow="2"
     inkscape:zoom="0.9899495"
     inkscape:cx="150.00765"
     inkscape:cy="383.85796"
     inkscape:document-units="px"
     inkscape:current-layer="g4318"
     showgrid="false"
     inkscape:window-width="1920"
     inkscape:window-height="1043"
     inkscape:window-x="0"
     inkscape:window-y="0"
     inkscape:window-maximized="1"
     inkscape:pagecheckerboard="0"
     width="115mm"
     showguides="true"
     inkscape:guide-bbox="true" />
  <metadata
     id="metadata7">
    <rdf:RDF>
      <cc:Work
         rdf:about="">
        <dc:format>image/svg+xml</dc:format>
        <dc:type
           rdf:resource="http://purl.org/dc/dcmitype/StillImage" />
      </cc:Work>
    </rdf:RDF>
  </metadata>
  <g
     inkscape:label="Layer 1"
     inkscape:groupmode="layer"
     id="layer1"
     transform="translate(0,-556.29955)">
    <g
       id="g4318"
       transform="matrix(1.0923513,0,0,1.0923513,1236.0379,-49.227347)">
      <rect
         style="fill:#e9e9e9;fill-rule:evenodd;stroke-width:1.10944;fill-opacity:1"
         id="rect47"
         width="434.86426"
         height="504.05573"
         x="-1110.5684"
         y="562.12933"
         ry="52.346237" />
      <path
         id="rect3398-5"
         style="fill:url(#linearGradient4248-7);fill-opacity:1;stroke:none;stroke-width:0.986229"
         d="m -727.36172,577.93468 c -10.59301,-2.7e-4 -19.18067,8.58663 -19.18132,19.17964 0.0166,6.41026 3.23434,12.38851 8.57569,15.93275 l -4.78305,367.94296 -90.41774,-0.29372 -109.78797,-181.84444 -10.63696,0.23347 0.41371,192.15481 -12.49989,-0.4839 c -0.0645,-73.55852 -0.95879,-238.8606 -0.95879,-238.8606 l 12.5599,-0.14849 125.12001,214.55505 72.81892,1.11194 0.92265,-355.74657 c 4.22259,-3.6319 6.65797,-8.91988 6.67315,-14.4895 -6.5e-4,-10.59235 -8.58729,-19.17898 -19.17963,-19.17964 -10.59301,-2.7e-4 -19.18067,8.58663 -19.18132,19.17964 0.0149,5.60629 2.48185,10.92543 6.75192,14.55822 l 0.5072,325.36289 -32.44303,0.38848 -140.14478,-236.3955 -34.85182,0.19714 -0.91567,311.07649 c 20.95921,0.032 36.93571,-0.081 57.89485,-0.049 l -2.54057,-137.26389 7.22898,-0.17599 74.8027,135.79898 131.8446,1.4641 1.48587,-398.74071 c 5.64794,-3.48734 9.0992,-9.64694 9.10371,-16.28477 0.007,-10.593 -8.58831,-19.17991 -19.18132,-19.17964 z"
         sodipodi:nodetypes="cccccccccccccccccccccccccccccscc" />
      <path
         id="rect3398"
         style="fill:url(#linearGradient15047);fill-opacity:1;stroke:none;stroke-width:1.03315"
         d="m -789.88307,614.36889 -51.95499,-0.35436 2.03888,132.10469 -3.13132,-0.0661 -74.48886,-132.56892 h -147.66404 l 1.2706,400.8518 c -5.2303,3.565 -8.373,9.4808 -8.3779,15.8104 -0.01,10.593 8.5867,19.1807 19.1797,19.1813 10.5937,3e-4 19.1816,-8.5876 19.1813,-19.1813 0,-5.5248 -2.3891,-10.7797 -6.5458,-14.4191 l -1.3947,-376.78753 108.62595,-0.68726 104.21872,171.33994 9.62794,-0.0764 -0.60675,-177.6545 10.94053,0.31586 0.68669,229.83441 -7.38942,-0.36318 -123.91448,-210.17048 -85.93458,-0.0704 1.6026,362.99204 c -5.1185,3.5795 -8.1736,9.427 -8.1885,15.673 -3e-4,10.5936 8.5876,19.1815 19.1813,19.1813 10.5937,3e-4 19.18162,-8.5877 19.18134,-19.1813 -9.4e-4,-5.7156 -2.55077,-11.133 -6.95474,-14.7762 -0.314,-101.90753 -0.3102,-238.20626 -0.3102,-340.16657 l 44.22781,0.11734 147.6429,245.45773 19.48471,-0.57328 z"
         sodipodi:nodetypes="cccccccsccccccccccccccccccccccc" />
    </g>
  </g>
  <style
     id="style4512"
     type="text/css">
	.st0{fill:#333333;}
</style>
</svg>
